---
title: 呼吸乐队.1992-THEBREATHING【深飞】【WAV+CUE】
date: 2022-12-03 09:21:38
categories: WAV车载音乐、镜像
tags: 华语中文
---
# 呼吸乐队.1992-THEBREATHING【深飞】【WAV+CUE】

表演者：呼吸乐队 The Breathing
专辑名称：呼吸乐队 The Breathing
专辑格式：iTunes Plus AAC
乐队成员: 高旗/曹钧/刘效松/吴运涛/邹世冬/赵牧阳/柳文利/马禾/顾忠/蔚华
流派: 摇滚
风格: 流行摇滚
简介：
1988年，高旗与著名音乐人曹钧组建“呼吸”乐队，主要担任乐队词曲创作并兼任吉它手。1990年乐队参演首都体育馆“90现代音乐会”。1991年推出“呼吸”专辑，9月宣布退出并组建超载乐队。
REM GENRE POP
REM DATE 1992
REM DISCID 740B390A
REM COMMENT "ExactAudioCopy v1.0b6"
PERFORMER "呼吸"
TITLE "THE BREATHING"
FILE "呼吸.-.[THE BREATHING](1992)[WAV].wav" WAVE
TRACK 01 AUDIO
TITLE "每次都想拥抱你"
PERFORMER "呼吸"
INDEX 00 00:00:00
INDEX 01 00:00:32
TRACK 02 AUDIO
TITLE "只想请你看着我"
PERFORMER "呼吸"
INDEX 00 03:55:27
INDEX 01 03:58:02
TRACK 03 AUDIO
TITLE "回来"
PERFORMER "呼吸"
INDEX 00 08:30:62
INDEX 01 08:33:37
TRACK 04 AUDIO
TITLE "走过人间辉煌"
PERFORMER "呼吸"
INDEX 00 13:19:00
INDEX 01 13:21:50
TRACK 05 AUDIO
TITLE "分手已是太久"
PERFORMER "呼吸"
INDEX 00 19:28:67
INDEX 01 19:31:42
TRACK 06 AUDIO
TITLE "挥起手"
PERFORMER "呼吸"
INDEX 00 23:23:42
INDEX 01 23:26:17
TRACK 07 AUDIO
TITLE "不再忙"
PERFORMER "呼吸"
INDEX 00 27:42:15
INDEX 01 27:44:65
TRACK 08 AUDIO
TITLE "让我站立起"
PERFORMER "呼吸"
INDEX 00 31:43:25
INDEX 01 31:46:00
TRACK 09 AUDIO
TITLE "不用再多说"
PERFORMER "呼吸"
INDEX 00 36:49:52
INDEX 01 36:52:27
TRACK 10 AUDIO
TITLE "爱的光芒"
PERFORMER "呼吸"
INDEX 00 42:29:00
INDEX 01 42:31:50
呼吸乐队.1992 - THE BREATHING【深飞】【WAV+CUE】.rar: https://url27.ctfile.com/f/9388027-739589723-d49bd8?p=559675
(访问密码: 559675)
呼吸乐队《呼吸》 1991 [WAV+CUE].rar: https://url27.ctfile.com/f/9388027-307774119-732c07?p=559675
(访问密码: 559675)
原文：[链接](https://blog.sina.com.cn/s/blog_1647c7e76010310fb.html)